<svg class="icon" style="width: 1em;height: 1em;vertical-align: middle;fill: currentColor;overflow: hidden;" viewBox="0 0 1024 1024" version="1.1" xmlns="http://www.w3.org/2000/svg"><path d="M976 173.952H585.184L544 132.736l-36.96-36.96-48-48H48a32 32 0 0 0-32 32v486.88a32 32 0 0 0 32 32h411.04l48-48L544 513.696l40.352-40.352H976a32 32 0 0 0 32-32V205.952a32 32 0 0 0-32-32z m-16 235.392a16 16 0 0 1-16 16H564.544l-20.544 20.544-27.488 27.456-77.344 77.312H80a16 16 0 0 1-16-16.032V111.776a16 16 0 0 1 16-16h359.232l78.112 78.144 26.656 26.688 20.928 20.928 0.48-0.48v0.864H944a16 16 0 0 1 16 16v171.424z m16 267.424H564.96l-48 48L480 761.728l-40.768 40.768H32a16 16 0 0 0-16 16v16a16 16 0 0 0 16 16h407.264L480 891.264l36.96 36.96 48 48H976a32 32 0 0 0 32-32V708.8a32 32 0 0 0-32-32.032z m-16 235.456a16 16 0 0 1-16 16H584.768l-77.728-77.728-24-24 24-24 77.728-77.728H944a16 16 0 0 1 16 16v171.456z" fill="#5173D7" /><path d="M890.656 96.224h-288v-48h288v48z m0 454.848h-288v48h288v-48zM421.344 676.8h-288v47.968h288V676.8z m0 251.424h-288v48h288v-48z" fill="#333333" /><path d="M890.656 347.616h-288v-48h288v48zM421.344 173.952h-288v48h288v-48z m0 125.664h-288v48h288v-48z m0 125.728h-288v48h288v-48z m469.312 377.152h-288v48h288v-48z" fill="#596790" /></svg>